<?xml version="1.0" encoding="utf-8"?>
<!-- Generator: Adobe Illustrator 19.1.0, SVG Export Plug-In . SVG Version: 6.00 Build 0)  -->
<svg version="1.1" id="Layer_1" xmlns="http://www.w3.org/2000/svg" xmlns:xlink="http://www.w3.org/1999/xlink" x="0px" y="0px"
	 viewBox="-188.2 369.1 213.7 56.2" style="enable-background:new -188.2 369.1 213.7 56.2;" xml:space="preserve">
<style type="text/css">
	.st0{fill:#FF671B;}
	.st1{fill:#FFFFFF;}
</style>
<g>
	<g>
		<path d="M-104.1,403.4h-3.1v-11.8l-4.8,11.8h-2.4l-4.8-11.8v11.8h-3.1v-19.1h3l6.1,14.2l6.1-14.2h3
			C-104.1,384.3-104.1,403.4-104.1,403.4z"/>
		<path d="M-88.7,390.7v12.7h-3v-1.7c-0.8,1.3-2.5,2-3.9,2c-3.9,0-6.5-3.1-6.5-6.7s2.6-6.7,6.5-6.7c1.5,0,3.1,0.8,3.9,2v-1.7h3
			V390.7z M-91.7,397.1c0-2.2-1.5-4-3.8-4c-2.2,0-3.7,1.9-3.7,4c0,2.2,1.5,4,3.7,4C-93.2,401.1-91.7,399.3-91.7,397.1z"/>
		<path d="M-78,393.5c-0.5-0.1-0.7-0.1-1.2-0.1c-2.5,0-3.9,1.4-3.9,4.6v5.5h-3v-12.8h3v2c0.6-1.2,2.2-2.2,3.9-2.2
			c0.5,0,0.8,0.1,1.2,0.2V393.5z"/>
		<path d="M-70,397.1l5.3,6.4h-3.7l-4.7-5.6v5.6h-3v-19.2h3v12l4.7-5.6h3.7L-70,397.1z"/>
		<path d="M-61.6,398c0,1.8,0.9,3.3,3.3,3.3c1.7,0,2.3-0.8,2.7-1.7h3c-0.4,2.2-2.5,4.1-5.7,4.1c-4.3,0-6.4-3.2-6.4-6.7
			c0-3.8,2.3-6.7,6.3-6.7c3.3,0,5.9,2.5,5.9,5.7c0,0.4,0,1-0.1,1.9h-9V398z M-61.5,395.8h6.2c0-1.8-1.3-2.9-3.1-2.9
			C-60.1,392.9-61.5,393.9-61.5,395.8z"/>
		<path d="M-42.6,403.4c-0.5,0.1-1.3,0.2-2.2,0.2c-1.4,0-4.1-0.2-4.1-4.5v-5.9h-2.2v-2.5h2.2v-3.8h3v3.8h2.9v2.5h-2.9v5.2
			c0,2.2,0.7,2.5,1.9,2.5c0.5,0,1.2-0.1,1.5-0.1L-42.6,403.4L-42.6,403.4z"/>
		<path d="M-37.3,392.4c0.8-1.3,2.5-2,3.9-2c3.9,0,6.5,3.1,6.5,6.7s-2.6,6.7-6.5,6.7c-1.5,0-3.1-0.8-3.9-2v8.1h-3v-19.2h3V392.4z
			 M-37.3,397.1c0,2.2,1.5,4,3.8,4c2.2,0,3.7-1.9,3.7-4c0-2.2-1.5-4-3.7-4C-35.9,393-37.3,394.9-37.3,397.1z"/>
		<path d="M-24.9,384.3h3v19.1h-3V384.3z"/>
		<path d="M-6.6,390.7v12.7h-3v-1.7c-0.8,1.3-2.5,2-3.9,2c-3.9,0-6.5-3.1-6.5-6.7s2.6-6.7,6.5-6.7c1.5,0,3.1,0.8,3.9,2v-1.7h3V390.7
			z M-9.6,397.1c0-2.2-1.5-4-3.8-4c-2.2,0-3.7,1.9-3.7,4c0,2.2,1.5,4,3.7,4C-11,401.1-9.6,399.3-9.6,397.1z"/>
		<path d="M4.5,395.4c-0.2-1.4-1-2.3-3-2.3c-2.3,0-3.4,1.9-3.4,4c0,2.2,1,4,3.6,4c1.7,0,2.5-0.8,2.8-2h3c-0.4,2.6-2.3,4.7-6,4.7
			c-4.1,0-6.4-3.2-6.4-6.7c0-3.4,2.2-6.7,6.3-6.7s5.8,2.5,6,5C7.4,395.4,4.5,395.4,4.5,395.4z"/>
		<path d="M12,398c0,1.8,0.9,3.3,3.3,3.3c1.7,0,2.3-0.8,2.7-1.7h3c-0.4,2.2-2.5,4.1-5.7,4.1c-4.3,0-6.4-3.2-6.4-6.7
			c0-3.8,2.3-6.7,6.3-6.7c3.3,0,5.9,2.5,5.9,5.7c0,0.4,0,1-0.1,1.9h-9V398z M12.1,395.8h6.2c0-1.8-1.3-2.9-3.1-2.9
			C13.5,392.9,12.1,393.9,12.1,395.8z"/>
	</g>
	<polygon class="st0" points="-168.8,369.1 -188.2,386.3 -186.4,407.2 -158.2,420.1 -128.2,405.9 -133.6,380.3 	"/>
	<path class="st1" d="M-175.9,384.3h7c4.2,0,6.9,3.1,6.9,6.8s-2.7,6.8-6.9,6.8h-3.8v5.8h-3.2V384.3z M-165.2,391.2
		c0-2.1-1.4-4-3.7-4h-3.8v7.9h3.8C-166.7,395.1-165.2,393.3-165.2,391.2"/>
	<path class="st1" d="M-152.3,393.7c-0.5-0.1-0.7-0.1-1.2-0.1c-2.6,0-4,1.5-4,4.7v5.6h-3v-13h3v2.1c0.6-1.2,2.3-2.3,4-2.3
		c0.5,0,0.9,0.1,1.2,0.2V393.7z"/>
	<path class="st1" d="M-152.2,397.4c0-3.7,2.7-6.8,6.8-6.8c4.2,0,6.9,3.1,6.9,6.8c0,3.7-2.7,6.8-6.9,6.8
		C-149.5,404.2-152.2,401-152.2,397.4 M-141.5,397.4c0-2.2-1.5-4.1-3.8-4.1c-2.3,0-3.8,1.9-3.8,4.1c0,2.2,1.5,4.1,3.8,4.1
		C-143,401.5-141.5,399.6-141.5,397.4"/>
	<g>
		<path d="M-52.8,412.6h3.2c2.6,0,3,1.7,3,2.7c0,1.3-0.8,1.8-1.5,2c0.5,0.1,1.6,0.6,1.6,2c0,1-0.4,2.7-3,2.7h-3.3V412.6z
			 M-49.6,416.5c1.3,0,1.5-0.8,1.5-1.3s-0.2-1.3-1.5-1.3h-1.7v2.6H-49.6z M-51.2,417.9v2.7h1.7c1.3,0,1.5-0.9,1.5-1.3
			c0-0.5-0.3-1.3-1.5-1.3h-1.7V417.9z"/>
		<path d="M-45.1,422.7h1.4c0,0.7,0.5,1.3,1.5,1.3s1.6-0.5,1.6-1.7v-1.2c-0.4,0.7-1.1,1-2,1s-1.5-0.3-1.9-0.8
			c-0.3-0.5-0.4-1-0.4-1.8v-3.7h1.5v3.2c0,1.1,0.3,1.9,1.3,1.9s1.5-0.8,1.5-1.9v-3.2h1.5v6.5c0,2.1-1.2,3-3.2,3
			C-44,425.2-45.1,424-45.1,422.7z"/>
		<path d="M-29.7,417.3h4.5v1.4h-1c-0.4,2.1-2,3.5-4.6,3.5c-3.1,0-4.8-2.4-4.8-4.9s1.9-4.9,4.8-4.9c2.2,0,3.8,1.4,4,3h-1.5
			c-0.2-0.9-1.1-1.7-2.4-1.7c-2,0-3.2,1.7-3.2,3.5c0,1.8,1.1,3.5,3.4,3.5c1.6,0,2.5-1,2.7-2.2h-1.8L-29.7,417.3L-29.7,417.3z"/>
		<path d="M-24.6,418.8c0-1.8,1.3-3.3,3.3-3.3s3.3,1.5,3.3,3.3c0,1.8-1.3,3.3-3.3,3.3S-24.6,420.6-24.6,418.8z M-19.5,418.8
			c0-1.1-0.7-2-1.8-2s-1.8,0.9-1.8,2c0,1.1,0.7,2,1.8,2S-19.5,419.9-19.5,418.8z"/>
		<path d="M-13.9,412.6c3.1,0,4.9,2.3,4.9,4.7c0,2.4-1.8,4.7-4.9,4.7h-3v-9.4H-13.9z M-15.4,414v6.6h1.5c2.1,0,3.3-1.6,3.3-3.3
			c0-1.7-1.2-3.3-3.3-3.3H-15.4z"/>
		<path d="M-1.8,415.7v6.3h-1.5v-0.8c-0.4,0.6-1.2,1-1.9,1c-1.9,0-3.2-1.5-3.2-3.3c0-1.8,1.3-3.3,3.2-3.3c0.7,0,1.5,0.4,1.9,1v-0.8
			h1.5V415.7z M-3.3,418.8c0-1.1-0.7-2-1.8-2s-1.8,0.9-1.8,2c0,1.1,0.7,2,1.8,2S-3.3,419.9-3.3,418.8z"/>
		<path d="M4.4,421.1c-0.4,0.6-1.2,1-1.9,1c-1.9,0-3.2-1.5-3.2-3.3c0-1.8,1.3-3.3,3.2-3.3c0.7,0,1.5,0.4,1.9,1v-4h1.5v9.5H4.4V421.1
			z M4.4,418.8c0-1.1-0.7-2-1.8-2s-1.8,0.9-1.8,2c0,1.1,0.7,2,1.8,2S4.4,419.9,4.4,418.8z"/>
		<path d="M12,421.1c-0.4,0.6-1.2,1-1.9,1c-1.9,0-3.2-1.5-3.2-3.3c0-1.8,1.3-3.3,3.2-3.3c0.7,0,1.5,0.4,1.9,1v-4h1.5v9.5H12V421.1z
			 M12,418.8c0-1.1-0.7-2-1.8-2s-1.8,0.9-1.8,2c0,1.1,0.7,2,1.8,2S12,419.9,12,418.8z"/>
		<path d="M14.9,422.7h1.4c0,0.7,0.5,1.3,1.5,1.3s1.6-0.5,1.6-1.7v-1.2c-0.4,0.7-1.1,1-2,1s-1.5-0.3-1.9-0.8c-0.3-0.5-0.4-1-0.4-1.8
			v-3.7h1.5v3.2c0,1.1,0.3,1.9,1.3,1.9s1.5-0.8,1.5-1.9v-3.2h1.5v6.5c0,2.1-1.2,3-3.2,3C16.1,425.2,15,424,14.9,422.7z"/>
		<path d="M21.7,417.1c0-1,0.7-1.9,1.9-1.9s1.9,0.9,1.9,1.9s-0.7,1.9-1.9,1.9C22.5,419.1,21.7,418.1,21.7,417.1z M25,417.1
			c0-0.8-0.5-1.5-1.4-1.5s-1.4,0.7-1.4,1.5s0.5,1.5,1.4,1.5S25,417.9,25,417.1z M22.9,418.1V416h0.9c0.5,0,0.8,0.3,0.8,0.8
			c0,0.3-0.2,0.6-0.5,0.7l0.4,0.7H24l-0.4-0.6h-0.4v0.6h-0.3V418.1z M23.8,417.1c0.2,0,0.4-0.2,0.4-0.4c0-0.2-0.1-0.4-0.4-0.4h-0.4
			v0.8C23.4,417.1,23.8,417.1,23.8,417.1z"/>
	</g>
</g>
</svg>
